{
    "asset" : {
        "generator" : "Khronos glTF Blender I/O v3.3.27",
        "version" : "2.0"
    },
    "scene" : 0,
    "scenes" : [
        {
            "name" : "Scene",
            "nodes" : [
                0,
                1
            ]
        }
    ],
    "nodes" : [
        {
            "mesh" : 0,
            "name" : "polySurface30.003",
            "rotation" : [
                0.7071068286895752,
                0,
                0,
                0.7071067094802856
            ],
            "scale" : [
                0.009999999776482582,
                0.009999997913837433,
                0.009999997913837433
            ],
            "translation" : [
                0.36338043212890625,
                27.592967987060547,
                3.5880136489868164
            ]
        },
        {
            "mesh" : 1,
            "name" : "polySurface30.658",
            "rotation" : [
                0.7071068286895752,
                0,
                0,
                0.7071067094802856
            ],
            "scale" : [
                0.009999999776482582,
                0.009999997913837433,
                0.009999997913837433
            ],
            "translation" : [
                0.36338043212890625,
                27.592967987060547,
                3.5880136489868164
            ]
        }
    ],
    "materials" : [
        {
            "alphaMode" : "BLEND",
            "doubleSided" : true,
            "emissiveFactor" : [
                1,
                1,
                1
            ],
            "emissiveTexture" : {
                "index" : 0
            },
            "name" : "light",
            "normalTexture" : {
                "index" : 1
            },
            "occlusionTexture" : {
                "index" : 2
            },
            "pbrMetallicRoughness" : {
                "baseColorTexture" : {
                    "index" : 3
                },
                "metallicRoughnessTexture" : {
                    "index" : 2
                }
            }
        },
        {
            "doubleSided" : true,
            "emissiveFactor" : [
                1,
                1,
                1
            ],
            "emissiveTexture" : {
                "index" : 4
            },
            "name" : "kokoshnik",
            "normalTexture" : {
                "index" : 5
            },
            "occlusionTexture" : {
                "index" : 6
            },
            "pbrMetallicRoughness" : {
                "baseColorTexture" : {
                    "index" : 7
                },
                "metallicRoughnessTexture" : {
                    "index" : 6
                }
            }
        }
    ],
    "meshes" : [
        {
            "name" : "polySurface30.006",
            "primitives" : [
                {
                    "attributes" : {
                        "POSITION" : 0,
                        "NORMAL" : 1,
                        "TEXCOORD_0" : 2
                    },
                    "indices" : 3,
                    "material" : 0
                }
            ]
        },
        {
            "name" : "polySurface30.005",
            "primitives" : [
                {
                    "attributes" : {
                        "POSITION" : 4,
                        "NORMAL" : 5,
                        "TEXCOORD_0" : 6
                    },
                    "indices" : 7,
                    "material" : 1
                }
            ]
        }
    ],
    "textures" : [
        {
            "sampler" : 0,
            "source" : 0
        },
        {
            "sampler" : 0,
            "source" : 1
        },
        {
            "sampler" : 0,
            "source" : 2
        },
        {
            "sampler" : 0,
            "source" : 3
        },
        {
            "sampler" : 0,
            "source" : 4
        },
        {
            "sampler" : 0,
            "source" : 5
        },
        {
            "sampler" : 0,
            "source" : 6
        },
        {
            "sampler" : 0,
            "source" : 7
        }
    ],
    "images" : [
        {
            "mimeType" : "image/jpeg",
            "name" : "Image_3",
            "uri" : "koko/Image_3.jpg"
        },
        {
            "mimeType" : "image/jpeg",
            "name" : "Image_2",
            "uri" : "koko/Image_2.jpg"
        },
        {
            "mimeType" : "image/jpeg",
            "name" : "Image_1",
            "uri" : "koko/Image_1.jpg"
        },
        {
            "mimeType" : "image/png",
            "name" : "Image_0",
            "uri" : "koko/Image_0.png"
        },
        {
            "mimeType" : "image/png",
            "name" : "Image_3",
            "uri" : "koko/Image_3-1.png"
        },
        {
            "mimeType" : "image/png",
            "name" : "Image_2",
            "uri" : "koko/Image_2-1.png"
        },
        {
            "mimeType" : "image/png",
            "name" : "Image_1",
            "uri" : "koko/Image_1-1.png"
        },
        {
            "mimeType" : "image/png",
            "name" : "Image_0",
            "uri" : "koko/Image_0-1.png"
        }
    ],
    "accessors" : [
        {
            "bufferView" : 0,
            "componentType" : 5126,
            "count" : 90,
            "max" : [
                2143.2724609375,
                -1460.635498046875,
                2097.12353515625
            ],
            "min" : [
                -2207.42529296875,
                -1460.63720703125,
                -2403.15771484375
            ],
            "type" : "VEC3"
        },
        {
            "bufferView" : 1,
            "componentType" : 5126,
            "count" : 90,
            "type" : "VEC3"
        },
        {
            "bufferView" : 2,
            "componentType" : 5126,
            "count" : 90,
            "type" : "VEC2"
        },
        {
            "bufferView" : 3,
            "componentType" : 5123,
            "count" : 90,
            "type" : "SCALAR"
        },
        {
            "bufferView" : 4,
            "componentType" : 5126,
            "count" : 18022,
            "max" : [
                1648.944091796875,
                771.1113891601562,
                1364.30810546875
            ],
            "min" : [
                -1672.072265625,
                -369.5216064453125,
                -1986.4346923828125
            ],
            "type" : "VEC3"
        },
        {
            "bufferView" : 5,
            "componentType" : 5126,
            "count" : 18022,
            "type" : "VEC3"
        },
        {
            "bufferView" : 6,
            "componentType" : 5126,
            "count" : 18022,
            "type" : "VEC2"
        },
        {
            "bufferView" : 7,
            "componentType" : 5123,
            "count" : 36231,
            "type" : "SCALAR"
        }
    ],
    "bufferViews" : [
        {
            "buffer" : 0,
            "byteLength" : 1080,
            "byteOffset" : 0,
            "target" : 34962
        },
        {
            "buffer" : 0,
            "byteLength" : 1080,
            "byteOffset" : 1080,
            "target" : 34962
        },
        {
            "buffer" : 0,
            "byteLength" : 720,
            "byteOffset" : 2160,
            "target" : 34962
        },
        {
            "buffer" : 0,
            "byteLength" : 180,
            "byteOffset" : 2880,
            "target" : 34963
        },
        {
            "buffer" : 0,
            "byteLength" : 216264,
            "byteOffset" : 3060,
            "target" : 34962
        },
        {
            "buffer" : 0,
            "byteLength" : 216264,
            "byteOffset" : 219324,
            "target" : 34962
        },
        {
            "buffer" : 0,
            "byteLength" : 144176,
            "byteOffset" : 435588,
            "target" : 34962
        },
        {
            "buffer" : 0,
            "byteLength" : 72462,
            "byteOffset" : 579764,
            "target" : 34963
        }
    ],
    "samplers" : [
        {
            "magFilter" : 9729,
            "minFilter" : 9987
        }
    ],
    "buffers" : [
        {
            "byteLength" : 652228,
            "uri" : "koko_test.bin"
        }
    ]
}
